<?xml version="1.0" encoding="UTF-8" standalone="no"?>
<svg
   width="63.104004"
   height="61.000061"
   viewBox="0 0 63.104004 61.000061"
   fill="none"
   version="1.1"
   id="svg55"
   xmlns="http://www.w3.org/2000/svg"
   xmlns:svg="http://www.w3.org/2000/svg">
  <defs
     id="defs59" />
  <path
     d="M 45.247,12.516061 33.446,0.61006104 c -0.196,-0.195 -0.429,-0.349 -0.685,-0.454 -0.257,-0.105 -0.531,-0.158 -0.808,-0.156000004844 C 31.401,0.00206104 30.872,0.22106104 30.481,0.61006104 L 0.612,30.374061 c -0.392,0.394 -0.612,0.927 -0.612,1.483 0,0.555 0.22,1.089 0.612,1.483 l 11.905,11.905 c 0.197,0.195 0.43,0.349 0.686,0.454 0.256,0.105 0.531,0.158 0.808,0.156 0.551,-0.002 1.08,-0.221 1.472,-0.61 l 5.953,-5.953 17.858,-17.858 5.953,-5.953 c 0.392,-0.394 0.612,-0.927 0.612,-1.483 0,-0.555 -0.22,-1.088 -0.612,-1.482 z m -7.446,4.459 -1.494,-1.494 c -0.394,-0.391 -0.927,-0.611 -1.483,-0.611 -0.555,0 -1.089,0.22 -1.483,0.611 -0.197,0.196 -0.353,0.429 -0.46,0.685 -0.107,0.256 -0.162,0.531 -0.162,0.809 0,0.278 0.055,0.552 0.162,0.809 0.107,0.256 0.263,0.489 0.46,0.684 l 1.494,1.494 -2.987,2.966 -4.459,-4.46 c -0.403,-0.344 -0.92,-0.524 -1.45,-0.504 -0.529,0.021 -1.031,0.24 -1.406,0.615 -0.375,0.374 -0.594,0.876 -0.615,1.406 -0.02,0.529 0.16,1.047 0.505,1.449 l 4.459,4.459 -2.987,2.987 -1.472,-1.493 c -0.396,-0.396 -0.934,-0.619 -1.494,-0.619 -0.56,0 -1.097,0.223 -1.493,0.619 -0.396,0.396 -0.619,0.933 -0.619,1.493 0,0.561 0.223,1.098 0.619,1.494 l 1.493,1.472 -2.966,2.987 -4.48,-4.459 c -0.394,-0.392 -0.927,-0.612 -1.483,-0.612 -0.556,0 -1.089,0.22 -1.483,0.612 -0.392,0.394 -0.611,0.927 -0.611,1.483 0,0.555 0.219,1.089 0.611,1.483 l 4.459,4.459 -2.965,2.987 -8.94,-8.94 26.777,-26.777 8.94,8.94 z"
     fill="#ff3343"
     id="path51" />
  <path
     d="M 23.138,61.000061 H 61 c 0.558,0 1.093,-0.222 1.487,-0.616 0.395,-0.395 0.617,-0.93 0.617,-1.487 v -37.863 c 0,-0.557 -0.222,-1.092 -0.617,-1.487 -0.394,-0.394 -0.929,-0.616 -1.487,-0.616 H 48.379 c -0.557,0 -1.093,0.222 -1.487,0.616 -0.394,0.395 -0.616,0.93 -0.616,1.487 v 23.138 H 23.138 c -0.558,0 -1.093,0.222 -1.487,0.616 -0.395,0.395 -0.616,0.93 -0.616,1.488 v 12.621 c 0,0.557 0.221,1.092 0.616,1.487 0.394,0.394 0.929,0.616 1.487,0.616 z m 2.103,-12.621 h 4.207 v 2.104 c 0,0.558 0.222,1.093 0.616,1.487 0.395,0.395 0.93,0.616 1.488,0.616 0.558,0 1.093,-0.221 1.487,-0.616 0.395,-0.394 0.616,-0.929 0.616,-1.487 v -2.104 h 4.207 v 2.104 c 0,0.558 0.222,1.093 0.616,1.487 0.395,0.395 0.93,0.616 1.488,0.616 0.557,0 1.092,-0.221 1.487,-0.616 0.394,-0.394 0.616,-0.929 0.616,-1.487 v -2.104 h 4.207 v 2.104 c 0,0.558 0.222,1.093 0.616,1.487 0.394,0.395 0.93,0.616 1.487,0.616 0.558,0 1.093,-0.221 1.488,-0.616 0.394,-0.394 0.616,-0.929 0.616,-1.487 v -2.104 h 2.103 c 0.558,0 1.093,-0.221 1.488,-0.616 0.394,-0.394 0.616,-0.929 0.616,-1.487 0,-0.558 -0.222,-1.093 -0.616,-1.488 -0.395,-0.394 -0.93,-0.616 -1.488,-0.616 h -2.103 v -4.206 h 2.103 c 0.558,0 1.093,-0.222 1.488,-0.617 0.394,-0.394 0.616,-0.929 0.616,-1.487 0,-0.558 -0.222,-1.093 -0.616,-1.487 -0.395,-0.395 -0.93,-0.616 -1.488,-0.616 h -2.103 v -4.207 h 2.103 c 0.558,0 1.093,-0.222 1.488,-0.616 0.394,-0.395 0.616,-0.93 0.616,-1.488 0,-0.558 -0.222,-1.093 -0.616,-1.487 -0.395,-0.395 -0.93,-0.616 -1.488,-0.616 h -2.103 v -4.207 h 8.414 v 33.655 H 25.241 Z"
     fill="#ff3343"
     id="path53" />
</svg>
