<?xml version="1.0" encoding="UTF-8" standalone="no"?>
<svg
   width="65"
   height="70.967125"
   viewBox="0 0 65 70.967125"
   fill="none"
   version="1.1"
   id="svg55"
   sodipodi:docname="Product Design LandingPage.svg"
   xmlns:inkscape="http://www.inkscape.org/namespaces/inkscape"
   xmlns:sodipodi="http://sodipodi.sourceforge.net/DTD/sodipodi-0.dtd"
   xmlns="http://www.w3.org/2000/svg"
   xmlns:svg="http://www.w3.org/2000/svg">
  <defs
     id="defs59" />
  <sodipodi:namedview
     id="namedview57"
     pagecolor="#ffffff"
     bordercolor="#000000"
     borderopacity="0.25"
     inkscape:showpageshadow="2"
     inkscape:pageopacity="0.0"
     inkscape:pagecheckerboard="0"
     inkscape:deskcolor="#d1d1d1"
     showgrid="false" />
  <path
     d="m 48.13,42.377131 c -0.134,0.144 -0.253,0.302 -0.355,0.471 -0.117,0.15 -0.207,0.319 -0.266,0.5 -0.09,0.176 -0.15,0.365 -0.177,0.56 -0.12,0.564 -0.058,1.151 0.177,1.678 0.133,0.365 0.344,0.697 0.62,0.972 0.276,0.275 0.609,0.486 0.976,0.618 0.35,0.165 0.735,0.246 1.122,0.236 0.384,0.004 0.766,-0.066 1.123,-0.207 0.353,-0.17 0.681,-0.388 0.975,-0.647 0.274,-0.275 0.49,-0.602 0.638,-0.96 0.147,-0.359 0.221,-0.743 0.219,-1.131 0.01,-0.386 -0.071,-0.769 -0.237,-1.119 -0.149,-0.357 -0.359,-0.685 -0.62,-0.971 -0.276,-0.273 -0.603,-0.489 -0.963,-0.636 -0.36,-0.146 -0.746,-0.221 -1.135,-0.218 -0.386,0.004 -0.767,0.084 -1.122,0.235 -0.363,0.14 -0.694,0.351 -0.975,0.619 z m -12.173,12.248 c -0.117,0.151 -0.207,0.32 -0.266,0.501 -0.111,0.172 -0.191,0.361 -0.236,0.559 -0.089,0.378 -0.089,0.771 0,1.149 l 0.177,0.53 0.266,0.53 0.354,0.441 c 0.581,0.552 1.354,0.859 2.157,0.854 0.389,0.003 0.774,-0.072 1.134,-0.218 0.36,-0.147 0.688,-0.363 0.964,-0.636 0.261,-0.286 0.471,-0.614 0.62,-0.971 0.184,-0.446 0.255,-0.931 0.207,-1.41 -0.047,-0.48 -0.213,-0.941 -0.481,-1.342 -0.269,-0.402 -0.632,-0.731 -1.058,-0.96 -0.426,-0.228 -0.902,-0.349 -1.386,-0.352 -0.782,0.011 -1.531,0.316 -2.098,0.854 z m 12.173,-0.471 c -0.269,0.28 -0.48,0.611 -0.621,0.972 -0.248,0.533 -0.33,1.128 -0.236,1.708 l 0.177,0.53 c 0.065,0.187 0.154,0.366 0.266,0.53 0.109,0.154 0.227,0.302 0.354,0.441 0.281,0.269 0.613,0.479 0.975,0.619 0.354,0.156 0.737,0.236 1.123,0.236 0.387,0 0.769,-0.08 1.123,-0.236 0.358,-0.149 0.688,-0.358 0.975,-0.619 0.284,-0.27 0.512,-0.594 0.669,-0.953 0.158,-0.359 0.241,-0.745 0.247,-1.137 0.01,-0.386 -0.071,-0.77 -0.237,-1.119 -0.149,-0.357 -0.359,-0.685 -0.62,-0.972 -0.287,-0.26 -0.617,-0.469 -0.975,-0.618 -0.354,-0.156 -0.736,-0.236 -1.123,-0.236 -0.386,0 -0.769,0.08 -1.122,0.236 -0.363,0.14 -0.694,0.35 -0.975,0.618 z m -12.439,-8.568 c 0.141,0.361 0.351,0.692 0.62,0.972 0.567,0.538 1.316,0.843 2.098,0.854 0.484,-0.003 0.96,-0.124 1.386,-0.352 0.426,-0.229 0.789,-0.558 1.058,-0.96 0.268,-0.401 0.434,-0.862 0.481,-1.341 0.048,-0.48 -0.023,-0.965 -0.207,-1.411 -0.149,-0.357 -0.359,-0.685 -0.62,-0.971 -0.276,-0.273 -0.604,-0.489 -0.964,-0.636 -0.36,-0.146 -0.745,-0.221 -1.134,-0.218 -0.782,0.011 -1.531,0.316 -2.098,0.854 -0.41,0.414 -0.687,0.939 -0.798,1.511 -0.11,0.571 -0.048,1.162 0.178,1.698 z m 12.439,-14.987 c -0.261,0.286 -0.471,0.615 -0.621,0.971 -0.226,0.537 -0.288,1.128 -0.178,1.699 0.111,0.571 0.389,1.097 0.799,1.511 0.281,0.268 0.612,0.478 0.975,0.618 0.353,0.156 0.736,0.237 1.122,0.237 0.387,0 0.769,-0.081 1.123,-0.237 0.358,-0.149 0.688,-0.358 0.975,-0.618 0.274,-0.275 0.49,-0.601 0.638,-0.96 0.147,-0.359 0.221,-0.743 0.219,-1.131 0.01,-0.386 -0.071,-0.769 -0.237,-1.119 -0.149,-0.356 -0.359,-0.685 -0.62,-0.971 -0.415,-0.409 -0.943,-0.685 -1.516,-0.796 -0.573,-0.11 -1.166,-0.048 -1.704,0.177 -0.363,0.141 -0.694,0.351 -0.975,0.619 z m -36.3118,2.09 v 23.556 c 0,0.781 0.3113,1.53 0.8653,2.082 0.5541,0.552 1.3056,0.862 2.0892,0.862 h 11.8182 c 0.7841,0 1.5351,-0.31 2.0891,-0.862 0.554,-0.552 0.865,-1.301 0.865,-2.082 v -23.556 c 0,-0.781 -0.311,-1.529 -0.865,-2.082 -0.554,-0.552 -1.305,-0.862 -2.0891,-0.862 H 14.7727 c -0.7836,0 -1.5351,0.31 -2.0892,0.862 -0.554,0.553 -0.8653,1.301 -0.8653,2.082 z m 11.8182,2.945 v 17.666 h -5.9091 v -17.666 z M 0,26.800131 v 35.334 c 0,2.343 0.9338,4.589 2.5961,6.246 1.6623,1.657 3.9168,2.587 6.2675,2.587 H 56.136 c 2.351,0 4.606,-0.93 6.268,-2.587 1.662,-1.657 2.596,-3.903 2.596,-6.246 v -35.334 c 0,-2.342 -0.934,-4.589 -2.596,-6.246 -1.662,-1.656 -3.917,-2.587 -6.268,-2.587 H 8.8636 c -2.3507,0 -4.6052,0.931 -6.2675,2.587 -1.6623,1.657 -2.5961,3.904 -2.5961,6.246 z m 56.136,-2.944 c 0.784,0 1.535,0.31 2.09,0.862 0.554,0.553 0.865,1.302 0.865,2.082 v 35.334 c 0,0.781 -0.311,1.53 -0.865,2.082 -0.555,0.552 -1.306,0.862 -2.09,0.862 H 8.8636 c -0.7836,0 -1.5351,-0.31 -2.0891,-0.862 -0.5541,-0.552 -0.8654,-1.301 -0.8654,-2.082 v -35.334 c 0,-0.78 0.3113,-1.529 0.8654,-2.082 0.554,-0.552 1.3055,-0.862 2.0891,-0.862 z m -20.179,7.214 c -0.117,0.15 -0.207,0.32 -0.266,0.5 -0.09,0.176 -0.15,0.365 -0.177,0.56 -0.089,0.378 -0.089,0.771 0,1.148 l 0.177,0.53 0.266,0.53 0.354,0.442 c 0.567,0.538 1.316,0.843 2.098,0.854 0.484,-0.003 0.96,-0.123 1.386,-0.352 0.426,-0.229 0.789,-0.558 1.058,-0.959 0.268,-0.402 0.434,-0.862 0.481,-1.342 0.048,-0.48 -0.023,-0.964 -0.207,-1.411 -0.149,-0.356 -0.359,-0.685 -0.62,-0.971 -0.276,-0.273 -0.604,-0.489 -0.964,-0.635 -0.36,-0.147 -0.745,-0.221 -1.134,-0.219 -0.782,0.011 -1.531,0.316 -2.098,0.854 z"
     fill="#ff3343"
     id="path45" />
  <path
     d="m 12.0922,1.0301307 c -0.1572,0.16 -0.2813,0.349 -0.3652,0.557 -0.0839,0.207 -0.126,0.429 -0.1239,0.653 l 0.1384,10.2050003 c 0.0039,0.224 0.052,0.445 0.1416,0.65 0.0895,0.206 0.2187,0.391 0.3801,0.546 0.1596,0.158 0.3487,0.282 0.5564,0.366 0.2076,0.084 0.4298,0.126 0.6538,0.124 l 6.811,-0.093 26.3056,-0.357 c 0.224,-0.003 0.445,-0.052 0.65,-0.141 0.205,-0.09 0.391,-0.219 0.546,-0.38 l 5.033,-5.1720003 c 0.315,-0.323 0.489,-0.758 0.483,-1.21 -0.007,-0.451 -0.192,-0.882 -0.515,-1.196 L 47.615,0.54913068 c -0.161,-0.176 -0.358,-0.315 -0.577,-0.41 -0.219,-0.094 -0.455,-0.142 -0.694,-0.13900000373 L 20.1119,0.42813068 l -6.7638,0.02 c -0.2264,0.009 -0.4495,0.057 -0.6601,0.141 -0.1064,0.086 -0.202,0.184 -0.2849,0.293 -0.061,0.051 -0.1166,0.108 -0.1662,0.17000002 z m 33.6488,2.445 3.452,3.359 -3.359,3.4520003 -23.899,0.324 -0.0924,-6.8110003 z m -27.2918,0.37 0.0923,6.8110003 -3.4057,0.034 -0.092,-6.7870003 z"
     fill="#ff3343"
     id="path47" />
</svg>
