<?xml version="1.0" encoding="UTF-8" standalone="no"?>
<svg
   width="49"
   height="61"
   viewBox="0 0 49 61"
   fill="none"
   version="1.1"
   id="svg55"
   xmlns="http://www.w3.org/2000/svg"
   xmlns:svg="http://www.w3.org/2000/svg">
  <defs
     id="defs59" />
  <path
     d="m 27.562,36.6 h -12.25 c -0.812,0 -1.591,0.321 -2.165,0.893 -0.574,0.572 -0.897,1.348 -0.897,2.157 0,0.809 0.323,1.585 0.897,2.157 0.574,0.572 1.353,0.893 2.165,0.893 h 12.25 c 0.813,0 1.592,-0.321 2.166,-0.893 0.574,-0.572 0.897,-1.348 0.897,-2.157 0,-0.809 -0.323,-1.585 -0.897,-2.157 C 29.154,36.921 28.375,36.6 27.562,36.6 Z M 39.812,6.1 H 36.199 C 35.567,4.32 34.398,2.779 32.852,1.686 31.305,0.594 29.458,0.005 27.562,0 H 21.438 C 19.542,0.005 17.695,0.594 16.148,1.686 14.602,2.779 13.433,4.32 12.801,6.1 H 9.188 C 6.751,6.1 4.414,7.064 2.691,8.78 0.968,10.496 0,12.823 0,15.25 v 36.6 c 0,2.427 0.968,4.754 2.691,6.47 1.723,1.716 4.06,2.68 6.497,2.68 h 30.624 c 2.437,0 4.774,-0.964 6.497,-2.68 C 48.032,56.604 49,54.277 49,51.85 V 15.25 C 49,12.823 48.032,10.496 46.309,8.78 44.586,7.064 42.249,6.1 39.812,6.1 Z M 18.375,9.15 c 0,-0.809 0.323,-1.585 0.897,-2.157 C 19.846,6.421 20.625,6.1 21.438,6.1 h 6.124 c 0.813,0 1.592,0.321 2.166,0.893 0.574,0.572 0.897,1.348 0.897,2.157 v 3.05 h -12.25 z m 24.5,42.7 c 0,0.809 -0.323,1.585 -0.897,2.157 -0.574,0.572 -1.353,0.893 -2.166,0.893 H 9.188 C 8.375,54.9 7.596,54.579 7.022,54.007 6.448,53.435 6.125,52.659 6.125,51.85 v -36.6 c 0,-0.809 0.323,-1.585 0.897,-2.157 C 7.596,12.521 8.375,12.2 9.188,12.2 h 3.062 v 3.05 c 0,0.809 0.323,1.585 0.897,2.157 0.574,0.572 1.353,0.893 2.165,0.893 h 18.376 c 0.812,0 1.591,-0.321 2.165,-0.893 0.574,-0.572 0.897,-1.348 0.897,-2.157 V 12.2 h 3.062 c 0.813,0 1.592,0.321 2.166,0.893 0.574,0.572 0.897,1.348 0.897,2.157 z M 33.688,24.4 H 15.312 c -0.812,0 -1.591,0.321 -2.165,0.893 -0.574,0.572 -0.897,1.348 -0.897,2.157 0,0.809 0.323,1.585 0.897,2.157 0.574,0.572 1.353,0.893 2.165,0.893 h 18.376 c 0.812,0 1.591,-0.321 2.165,-0.893 0.574,-0.572 0.897,-1.348 0.897,-2.157 0,-0.809 -0.323,-1.585 -0.897,-2.157 C 35.279,24.721 34.5,24.4 33.688,24.4 Z"
     fill="black"
     id="path49"
     style="fill:#ffffff" />
</svg>
